<?xml version="1.0" encoding="UTF-8" standalone="no"?>
<!-- Created with Inkscape (http://www.inkscape.org/) -->

<svg
   xmlns:dc="http://purl.org/dc/elements/1.1/"
   xmlns:cc="http://creativecommons.org/ns#"
   xmlns:rdf="http://www.w3.org/1999/02/22-rdf-syntax-ns#"
   xmlns:svg="http://www.w3.org/2000/svg"
   xmlns="http://www.w3.org/2000/svg"
   xmlns:sodipodi="http://sodipodi.sourceforge.net/DTD/sodipodi-0.dtd"
   xmlns:inkscape="http://www.inkscape.org/namespaces/inkscape"
   sodipodi:docname="opt6.svg"
   inkscape:version="0.92.4 (5da689c313, 2019-01-14)"
   id="svg1724"
   version="1.1"
   viewBox="0 0 925.77679 137.83144"
   height="137.83144mm"
   width="925.77679mm">
  <defs
     id="defs1718" />
  <sodipodi:namedview
     id="base"
     pagecolor="#ffffff"
     bordercolor="#666666"
     borderopacity="1.0"
     inkscape:pageopacity="0.0"
     inkscape:pageshadow="2"
     inkscape:zoom="0.0875"
     inkscape:cx="2051.1513"
     inkscape:cy="2843.5682"
     inkscape:document-units="mm"
     inkscape:current-layer="layer1"
     showgrid="false"
     inkscape:window-width="1920"
     inkscape:window-height="1080"
     inkscape:window-x="1920"
     inkscape:window-y="0"
     inkscape:window-maximized="1"
     showguides="true"
     inkscape:guide-bbox="true"
     inkscape:snap-smooth-nodes="true" />
  <metadata
     id="metadata1721">
    <rdf:RDF>
      <cc:Work
         rdf:about="">
        <dc:format>image/svg+xml</dc:format>
        <dc:type
           rdf:resource="http://purl.org/dc/dcmitype/StillImage" />
        <dc:title></dc:title>
      </cc:Work>
    </rdf:RDF>
  </metadata>
  <g
     style="display:inline"
     inkscape:label="Hidden pages"
     sodipodi:insensitive="true"
     inkscape:groupmode="layer"
     id="other_pages"
     transform="translate(-66.411681)">
    <g
       style="display:inline"
       id="page0"
       sodipodi:insensitive="true" />
    <g
       sodipodi:insensitive="true"
       id="page2"
       style="display:none">
      <path
         style="display:inline;fill:#373737;fill-opacity:1;fill-rule:nonzero;stroke:none;stroke-width:0.35277784"
         d="m 118.45117,94.796054 -3.89112,0.0168 v 9.079426 h 3.89112 c 1.29416,1e-5 2.34337,-1.08546 2.34336,-2.38584 0,-0.003 -4.4e-4,-0.006 -4.4e-4,-0.008 h 4.4e-4 v -4.347476 c -2e-5,-1.30036 -1.04922,-2.35462 -2.34336,-2.35461 z m 18.25303,0 c -1.29415,-1e-5 -2.34333,1.05426 -2.34335,2.35461 v 4.347476 h 4.5e-4 c 0,0.003 -4.5e-4,0.006 -4.5e-4,0.008 -1e-5,1.30039 1.03081,2.38609 2.32498,2.38607 h 1.57074 c 1.29415,2e-5 2.32476,-1.08569 2.32474,-2.38607 0,-0.003 -4.4e-4,-0.006 -4.4e-4,-0.008 h 4.4e-4 v -2.137556 -0.0163 h -3.11023 v 1.518586 h 1.56246 v 0.66422 c 0,0.44139 -0.35608,0.79906 -0.79535,0.79903 h -1.53399 c -0.43927,3e-5 -0.79536,-0.35764 -0.79536,-0.79903 v -4.419826 h 0.001 c 0,-0.42704 0.37162,-0.75565 0.79399,-0.75585 h 1.53398 c 0.42236,0 0.79375,0.32881 0.79375,0.75585 h 0.002 v 0.44051 h 1.54776 v -0.3971 c -2e-5,-1.30036 -1.04898,-2.35462 -2.34312,-2.35461 z m -57.813049,0.0161 a 2.3432581,2.3545177 0 0 0 -0.254707,0.0168 h -3.636413 v 5.435896 3.64353 h 1.547995 v -3.64353 h 2.343125 a 2.3432581,2.3545177 0 0 0 2.343354,-2.354606 2.3432581,2.3545177 0 0 0 -4.44e-4,-0.008 h 4.44e-4 v -0.73518 a 2.3432581,2.3545177 0 0 0 -2.343354,-2.35461 z m 19.773235,0 -3.891119,0.0168 v 1.53858 h 3.891119 c 0.422361,0 0.79375,0.32858 0.79375,0.75562 h 0.0016 v 0.80753 c -4e-6,0.44139 -0.356081,0.79929 -0.795358,0.79926 l -3.351388,0.0104 2.965768,5.152016 1.746202,0.0103 0.18994,-0.0207 -2.215884,-3.61736 h 0.665362 c 1.294143,2e-5 2.343332,-1.054006 2.343352,-2.354366 0,-0.003 -4.9e-4,-0.006 -4.9e-4,-0.008 h 4.9e-4 v -0.73541 c 0,-1.30034 -1.049234,-2.35439 -2.343352,-2.35438 z m -11.195408,0.004 -2.589563,4.53466 v 4.541776 h 1.547996 v -1.49677 h 3.138482 v 1.49678 h 1.547995 v -4.528456 -2.4e-4 -0.0133 h -0.0074 l -2.581985,-4.52134 z m 69.153622,0 -2.58957,4.53466 v 4.541776 h 1.54799 v -1.49678 h 3.13849 v 1.49678 h 1.54799 v -4.528456 -2.3e-4 -0.0133 h -0.007 l -2.58198,-4.52133 z m 14.69194,0.003 v 1.53559 h 1.54799 v -1.5356 z m -64.04431,0.007 -2.58956,4.53466 v 4.541786 h 1.548 v -1.49678 h 3.13848 v 1.49678 h 1.54799 v -4.528466 -4.4e-4 -0.0131 h -0.008 l -2.58175,-4.52132 z m 17.18321,10e-4 v 1.55535 h 2.34336 v 5.974706 h -2.34336 v 1.53468 h 6.24849 v -1.53468 h -2.34312 v -5.974706 h 2.34312 v -1.55535 z m 24.37267,8.9e-4 -1.56246,2.72714 -1.56201,-2.72622 h -1.56201 v 9.063106 h 1.56201 v -5.917526 l 0.80523,1.4056 1.51401,-8.9e-4 0.80523,-1.40536 v 5.917516 h 1.56201 v -9.063336 z m -32.71806,1.52341 h 2.34312 c 0.42236,3.5e-4 0.79398,0.32881 0.79398,0.75585 h 0.002 v 4.419826 c 0,0.44138 -0.35631,0.79906 -0.79558,0.79903 h -2.34313 z m -39.560024,0.0161 h 2.343125 c 0.422361,3.5e-4 0.79398,0.32881 0.79398,0.75585 h 0.0014 v 0.80753 c -4e-6,0.44138 -0.35608,0.79907 -0.795358,0.79903 h -2.343127 z m 11.444835,0.65572 1.573032,2.75469 v 1.082676 h -3.138482 v -1.095766 z m 69.153839,0 1.57281,2.75469 v 1.082676 h -3.13849 v -1.095766 z m -49.35258,0.0103 1.57303,2.7547 v 1.082666 h -3.13848 v -1.095766 z m 73.42116,0.51171 c -1.29414,-10e-6 -2.34333,1.05401 -2.34335,2.35438 v 1.589786 h 4.4e-4 c 0,0.003 -4.4e-4,0.006 -4.4e-4,0.008 -1e-5,1.30039 1.03082,2.38586 2.32498,2.38584 h 1.57073 c 1.29417,2e-5 2.32499,-1.08545 2.32498,-2.38584 0,-0.003 -4.5e-4,-0.006 -4.5e-4,-0.008 l -1.54754,0.0287 c 0,0.44139 -0.35608,0.79929 -0.79536,0.79926 h -1.53398 c -0.43928,3e-5 -0.79536,-0.35787 -0.79536,-0.79926 v -1.661966 h 0.002 c 0,-0.42704 0.37139,-0.75542 0.79375,-0.75563 h 1.53399 c 0.42235,3.6e-4 0.79375,0.32859 0.79375,0.75563 h 0.002 l 1.54799,0.0434 c -2e-5,-1.30036 -1.04921,-2.35439 -2.34335,-2.35438 z m 7.56428,0 v 3.944166 h 2.4e-4 c 0,0.003 -2.4e-4,0.006 -2.4e-4,0.008 -1e-5,1.30039 1.03059,2.38586 2.32475,2.38584 h 1.57074 c 1.29416,2e-5 2.32499,-1.08545 2.32498,-2.38584 0,-0.003 0,-0.006 0,-0.008 v 0 -3.944166 h -1.548 v 3.972876 c 0,0.44139 -0.35608,0.79929 -0.79536,0.79927 h -1.53399 c -0.43927,2e-5 -0.79535,-0.35788 -0.79535,-0.79927 v -3.972876 z m -19.81526,0.36449 v 1.55535 h 2.34312 v 2.883766 h -2.34312 v 1.54317 l 6.24848,-0.008 v -1.53472 h -2.34335 v -4.439116 z m -5.19291,4.446696 v 1.53559 h 1.548 v -1.53559 z"
         id="path2785-3"
         inkscape:connector-curvature="0" />
    </g>
  </g>
  <g
     style="display:inline"
     inkscape:label="Page 1"
     inkscape:groupmode="layer"
     id="current_page"
     transform="translate(-66.411681)">
    <g
       inkscape:groupmode="layer"
       transform="translate(107.0298,-20.754923)"
       id="layer1"
       inkscape:label="Layer 1">
      <path
         inkscape:connector-curvature="0"
         id="path2785"
         d="m 404.27532,61.048799 -24.44419,0.105259 v 57.037382 h 24.44419 c 8.12999,8e-5 14.72114,-6.81887 14.72106,-14.98795 0,-0.0168 -0.003,-0.0349 -0.003,-0.0519 h 0.003 V 75.840495 c -1.4e-4,-8.168946 -6.59121,-14.791836 -14.72106,-14.791752 z m 114.66635,0 c -8.12988,-5.6e-5 -14.72095,6.622862 -14.72106,14.791752 v 27.311059 h 0.003 c 0,0.0168 -0.003,0.0349 -0.003,0.0519 -5e-5,8.16912 6.47565,14.98952 14.60564,14.98943 h 9.86742 c 8.12999,9e-5 14.60427,-6.82034 14.60418,-14.98943 0,-0.0167 -0.003,-0.0349 -0.003,-0.0519 h 0.003 V 89.723336 89.620869 h -19.5386 v 9.539883 h 9.81545 v 4.172648 c 0,2.77281 -2.23691,5.01972 -4.99646,5.01955 h -9.63657 c -2.75954,1.7e-4 -4.99648,-2.24674 -4.99648,-5.01955 V 75.567826 h 0.008 c 0,-2.682655 2.33452,-4.747019 4.98783,-4.748303 h 9.63655 c 2.65331,0 4.98638,2.065648 4.98638,4.748303 h 0.0112 v 2.767338 h 9.72313 V 75.840523 C 543.2985,67.671605 536.70886,61.048715 528.579,61.048771 Z M 155.75749,61.14987 a 14.720452,14.791185 0 0 0 -1.60008,0.105259 h -22.84413 v 34.14857 22.888841 h 9.72457 V 95.403699 h 14.71964 a 14.720452,14.791185 0 0 0 14.72103,-14.791755 14.720452,14.791185 0 0 0 -0.003,-0.05193 h 0.003 V 75.941566 A 14.720452,14.791185 0 0 0 155.75749,61.149814 Z m 124.21635,0 -24.44418,0.105259 v 9.665437 h 24.44418 c 2.65328,0 4.98635,2.064168 4.98635,4.746852 h 0.0112 v 5.072931 c -3e-5,2.772838 -2.23691,5.021195 -4.99646,5.021 l -21.05358,0.06505 18.63109,32.365261 10.96973,0.0648 1.19319,-0.12983 -13.92028,-22.724367 h 4.17985 c 8.12986,8.4e-5 14.72095,-6.621385 14.72103,-14.790303 0,-0.01675 -0.003,-0.0349 -0.003,-0.05193 h 0.003 v -4.619899 c 0,-8.168778 -6.59134,-14.790384 -14.72103,-14.7903 z m -70.33007,0.02234 -16.26776,28.486969 v 28.531671 h 9.72458 V 108.788 h 19.71609 v 9.40285 h 9.72458 v -28.447994 -0.0015 -0.08376 h -0.0461 L 216.27507,61.254347 Z m 434.42613,0 -16.26776,28.486969 v 28.531671 h 9.72457 V 108.788 h 19.71607 v 9.40285 h 9.7246 v -28.447994 -0.0015 -0.08376 h -0.0461 L 650.70116,61.254347 Z m 92.29544,0.01954 v 9.646675 h 9.72457 V 61.191694 Z M 334.03615,61.23642 317.7684,89.723361 v 28.531709 h 9.72457 v -9.40282 h 19.7161 v 9.40282 h 9.72457 v -28.448029 -0.0028 -0.08236 h -0.0475 L 340.66748,61.31862 Z m 107.94572,0.0084 v 9.770752 h 14.72106 V 108.549 h -14.72106 v 9.6409 h 39.25325 V 108.549 H 466.51551 V 71.015551 h 14.71961 v -9.770752 z m 153.11017,0.0056 -9.81545,17.131994 -9.81261,-17.126215 h -9.81258 v 56.934821 h 9.81258 V 81.016843 l 5.05853,8.83004 9.51104,-0.0056 5.05849,-8.828588 v 37.174145 h 9.81261 V 61.250578 Z m -205.53633,9.570089 h 14.71961 c 2.65328,0.0022 4.9878,2.065648 4.9878,4.748304 h 0.0112 v 27.765577 c -3e-5,2.77278 -2.23834,5.01972 -4.99791,5.01955 H 389.5568 Z M 141.03785,70.92158 h 14.71964 c 2.65329,0.0022 4.9878,2.06562 4.9878,4.748304 h 0.008 v 5.072931 c -3e-5,2.77281 -2.23691,5.019771 -4.99646,5.019548 h -14.71925 z m 71.89698,4.119234 9.88185,17.30513 v 6.801443 h -19.71609 v -6.883696 z m 434.42755,0 9.8804,17.30513 v 6.801443 h -19.71607 v -6.883696 z m -310.03516,0.06477 9.88185,17.305158 v 6.801415 h -19.7161 v -6.883668 z m 461.23504,3.214591 c -8.12989,-5.6e-5 -14.72095,6.621385 -14.72106,14.790331 v 9.987164 h 0.003 c 0,0.0168 -0.003,0.0349 -0.003,0.0519 -6e-5,8.16912 6.47564,14.98807 14.60564,14.98798 h 9.86741 c 8.13,9e-5 14.60569,-6.81889 14.60561,-14.98798 0,-0.0168 -0.003,-0.0349 -0.003,-0.0519 l -9.7217,0.18037 c -3e-5,2.77284 -2.23691,5.02119 -4.99649,5.02103 h -9.63657 c -2.75954,1.6e-4 -4.99645,-2.24819 -4.99645,-5.02103 V 92.837837 h 0.0112 c 0,-2.682683 2.3331,-4.745567 4.98638,-4.746879 h 9.63657 c 2.65326,0.0022 4.98638,2.064196 4.98638,4.746879 h 0.0112 l 9.72457,0.272781 c 3e-5,-8.168978 -6.59103,-14.790419 -14.72089,-14.790363 z m 47.51913,0 v 24.777495 h 10e-4 c 0,0.0168 -10e-4,0.0349 -10e-4,0.0519 -8e-5,8.16912 6.47419,14.98807 14.60419,14.98798 h 9.86744 c 8.13,9e-5 14.6057,-6.81889 14.60564,-14.98798 0,-0.0168 0,-0.0349 0,-0.0519 v 0 -24.777495 h -9.7246 v 24.957835 c 0,2.77284 -2.23694,5.02119 -4.99652,5.02103 H 860.801 c -2.75955,1.6e-4 -4.99646,-2.24819 -4.99646,-5.02103 V 78.320143 Z M 721.601,80.609938 v 9.770755 h 14.71961 V 108.49668 H 721.601 v 9.69429 l 39.25325,-0.0533 v -9.6409 H 746.13322 V 80.609962 Z m -32.62203,27.934382 v 9.64665 h 9.72457 v -9.64668 z"
         style="display:inline;fill:#373737;fill-opacity:1;fill-rule:nonzero;stroke:none;stroke-width:0.35277784" />
      <path
         inkscape:connector-curvature="0"
         id="path2822"
         d="M 27.970233,21.254923 A 68.08847,68.415646 0 0 0 -40.118119,89.670386 68.08847,68.415646 0 0 0 27.970233,158.08636 68.08847,68.415646 0 0 0 96.058583,89.670386 68.08847,68.415646 0 0 0 27.970233,21.254923 Z m -42.215513,39.8601 H 4.5179131 l 4.69119,8.16384 23.4275099,-0.0047 4.69067,8.161774 -42.1912199,0.0072 z m 65.667823,0.0016 18.7632,5.3e-4 -9.38186,16.327683 h -9.38185 l -11.74916,20.390438 h -9.37927 z m -35.17511,20.431274 21.10259,36.711973 -9.38393,16.32664 -9.38082,-16.32768 4.69222,-8.16384 -11.72021,-20.385319 z"
         style="display:inline;opacity:1;fill:#373737;fill-opacity:1;stroke:#d1d1d1;stroke-width:1.00000012;stroke-linecap:butt;stroke-linejoin:miter;stroke-miterlimit:10;stroke-dasharray:none;stroke-dashoffset:2.1245997;stroke-opacity:0" />
    </g>
    <g
       style="display:inline"
       id="page1"
       sodipodi:insensitive="true" />
  </g>
</svg>
