<?xml version="1.0" encoding="UTF-8" standalone="no"?>
<!-- Created with Inkscape (http://www.inkscape.org/) -->

<svg
   xmlns:dc="http://purl.org/dc/elements/1.1/"
   xmlns:cc="http://creativecommons.org/ns#"
   xmlns:rdf="http://www.w3.org/1999/02/22-rdf-syntax-ns#"
   xmlns:svg="http://www.w3.org/2000/svg"
   xmlns="http://www.w3.org/2000/svg"
   xmlns:sodipodi="http://sodipodi.sourceforge.net/DTD/sodipodi-0.dtd"
   xmlns:inkscape="http://www.inkscape.org/namespaces/inkscape"
   sodipodi:docname="opt5.svg"
   inkscape:version="0.92.4 (5da689c313, 2019-01-14)"
   id="svg1724"
   version="1.1"
   viewBox="0 0 270.00006 198.70444"
   height="198.70444mm"
   width="270.00006mm">
  <defs
     id="defs1718" />
  <sodipodi:namedview
     id="base"
     pagecolor="#ffffff"
     bordercolor="#666666"
     borderopacity="1.0"
     inkscape:pageopacity="0.0"
     inkscape:pageshadow="2"
     inkscape:zoom="0.35"
     inkscape:cx="285.95065"
     inkscape:cy="266.93301"
     inkscape:document-units="mm"
     inkscape:current-layer="page1"
     showgrid="false"
     inkscape:window-width="1920"
     inkscape:window-height="1080"
     inkscape:window-x="1920"
     inkscape:window-y="0"
     inkscape:window-maximized="1" />
  <metadata
     id="metadata1721">
    <rdf:RDF>
      <cc:Work
         rdf:about="">
        <dc:format>image/svg+xml</dc:format>
        <dc:type
           rdf:resource="http://purl.org/dc/dcmitype/StillImage" />
        <dc:title />
      </cc:Work>
    </rdf:RDF>
  </metadata>
  <g
     style="display:inline"
     inkscape:label="Hidden pages"
     sodipodi:insensitive="true"
     inkscape:groupmode="layer"
     id="other_pages">
    <g
       style="display:inline"
       id="page0"
       sodipodi:insensitive="true" />
    <g
       sodipodi:insensitive="true"
       id="page2"
       style="display:none">
      <path
         style="display:inline;fill:#373737;fill-opacity:1;fill-rule:nonzero;stroke:none;stroke-width:0.35277784"
         d="m 118.45117,94.796054 -3.89112,0.0168 v 9.079426 h 3.89112 c 1.29416,1e-5 2.34337,-1.08546 2.34336,-2.38584 0,-0.003 -4.4e-4,-0.006 -4.4e-4,-0.008 h 4.4e-4 v -4.347476 c -2e-5,-1.30036 -1.04922,-2.35462 -2.34336,-2.35461 z m 18.25303,0 c -1.29415,-1e-5 -2.34333,1.05426 -2.34335,2.35461 v 4.347476 h 4.5e-4 c 0,0.003 -4.5e-4,0.006 -4.5e-4,0.008 -1e-5,1.30039 1.03081,2.38609 2.32498,2.38607 h 1.57074 c 1.29415,2e-5 2.32476,-1.08569 2.32474,-2.38607 0,-0.003 -4.4e-4,-0.006 -4.4e-4,-0.008 h 4.4e-4 v -2.137556 -0.0163 h -3.11023 v 1.518586 h 1.56246 v 0.66422 c 0,0.44139 -0.35608,0.79906 -0.79535,0.79903 h -1.53399 c -0.43927,3e-5 -0.79536,-0.35764 -0.79536,-0.79903 v -4.419826 h 0.001 c 0,-0.42704 0.37162,-0.75565 0.79399,-0.75585 h 1.53398 c 0.42236,0 0.79375,0.32881 0.79375,0.75585 h 0.002 v 0.44051 h 1.54776 v -0.3971 c -2e-5,-1.30036 -1.04898,-2.35462 -2.34312,-2.35461 z m -57.813049,0.0161 a 2.3432581,2.3545177 0 0 0 -0.254707,0.0168 h -3.636413 v 5.435896 3.64353 h 1.547995 v -3.64353 h 2.343125 a 2.3432581,2.3545177 0 0 0 2.343354,-2.354606 2.3432581,2.3545177 0 0 0 -4.44e-4,-0.008 h 4.44e-4 v -0.73518 a 2.3432581,2.3545177 0 0 0 -2.343354,-2.35461 z m 19.773235,0 -3.891119,0.0168 v 1.53858 h 3.891119 c 0.422361,0 0.79375,0.32858 0.79375,0.75562 h 0.0016 v 0.80753 c -4e-6,0.44139 -0.356081,0.79929 -0.795358,0.79926 l -3.351388,0.0104 2.965768,5.152016 1.746202,0.0103 0.18994,-0.0207 -2.215884,-3.61736 h 0.665362 c 1.294143,2e-5 2.343332,-1.054006 2.343352,-2.354366 0,-0.003 -4.9e-4,-0.006 -4.9e-4,-0.008 h 4.9e-4 v -0.73541 c 0,-1.30034 -1.049234,-2.35439 -2.343352,-2.35438 z m -11.195408,0.004 -2.589563,4.53466 v 4.541776 h 1.547996 v -1.49677 h 3.138482 v 1.49678 h 1.547995 v -4.528456 -2.4e-4 -0.0133 h -0.0074 l -2.581985,-4.52134 z m 69.153622,0 -2.58957,4.53466 v 4.541776 h 1.54799 v -1.49678 h 3.13849 v 1.49678 h 1.54799 v -4.528456 -2.3e-4 -0.0133 h -0.007 l -2.58198,-4.52133 z m 14.69194,0.003 v 1.53559 h 1.54799 v -1.5356 z m -64.04431,0.007 -2.58956,4.53466 v 4.541786 h 1.548 v -1.49678 h 3.13848 v 1.49678 h 1.54799 v -4.528466 -4.4e-4 -0.0131 h -0.008 l -2.58175,-4.52132 z m 17.18321,10e-4 v 1.55535 h 2.34336 v 5.974706 h -2.34336 v 1.53468 h 6.24849 v -1.53468 h -2.34312 v -5.974706 h 2.34312 v -1.55535 z m 24.37267,8.9e-4 -1.56246,2.72714 -1.56201,-2.72622 h -1.56201 v 9.063106 h 1.56201 v -5.917526 l 0.80523,1.4056 1.51401,-8.9e-4 0.80523,-1.40536 v 5.917516 h 1.56201 v -9.063336 z m -32.71806,1.52341 h 2.34312 c 0.42236,3.5e-4 0.79398,0.32881 0.79398,0.75585 h 0.002 v 4.419826 c 0,0.44138 -0.35631,0.79906 -0.79558,0.79903 h -2.34313 z m -39.560024,0.0161 h 2.343125 c 0.422361,3.5e-4 0.79398,0.32881 0.79398,0.75585 h 0.0014 v 0.80753 c -4e-6,0.44138 -0.35608,0.79907 -0.795358,0.79903 h -2.343127 z m 11.444835,0.65572 1.573032,2.75469 v 1.082676 h -3.138482 v -1.095766 z m 69.153839,0 1.57281,2.75469 v 1.082676 h -3.13849 v -1.095766 z m -49.35258,0.0103 1.57303,2.7547 v 1.082666 h -3.13848 v -1.095766 z m 73.42116,0.51171 c -1.29414,-10e-6 -2.34333,1.05401 -2.34335,2.35438 v 1.589786 h 4.4e-4 c 0,0.003 -4.4e-4,0.006 -4.4e-4,0.008 -1e-5,1.30039 1.03082,2.38586 2.32498,2.38584 h 1.57073 c 1.29417,2e-5 2.32499,-1.08545 2.32498,-2.38584 0,-0.003 -4.5e-4,-0.006 -4.5e-4,-0.008 l -1.54754,0.0287 c 0,0.44139 -0.35608,0.79929 -0.79536,0.79926 h -1.53398 c -0.43928,3e-5 -0.79536,-0.35787 -0.79536,-0.79926 v -1.661966 h 0.002 c 0,-0.42704 0.37139,-0.75542 0.79375,-0.75563 h 1.53399 c 0.42235,3.6e-4 0.79375,0.32859 0.79375,0.75563 h 0.002 l 1.54799,0.0434 c -2e-5,-1.30036 -1.04921,-2.35439 -2.34335,-2.35438 z m 7.56428,0 v 3.944166 h 2.4e-4 c 0,0.003 -2.4e-4,0.006 -2.4e-4,0.008 -1e-5,1.30039 1.03059,2.38586 2.32475,2.38584 h 1.57074 c 1.29416,2e-5 2.32499,-1.08545 2.32498,-2.38584 0,-0.003 0,-0.006 0,-0.008 v 0 -3.944166 h -1.548 v 3.972876 c 0,0.44139 -0.35608,0.79929 -0.79536,0.79927 h -1.53399 c -0.43927,2e-5 -0.79535,-0.35788 -0.79535,-0.79927 v -3.972876 z m -19.81526,0.36449 v 1.55535 h 2.34312 v 2.883766 h -2.34312 v 1.54317 l 6.24848,-0.008 v -1.53472 h -2.34335 v -4.439116 z m -5.19291,4.446696 v 1.53559 h 1.548 v -1.53559 z"
         id="path2785-3"
         inkscape:connector-curvature="0" />
    </g>
  </g>
  <g
     style="display:inline"
     inkscape:label="Page 1"
     inkscape:groupmode="layer"
     id="current_page">
    <g
       inkscape:groupmode="layer"
       transform="translate(107.0298,-20.754923)"
       id="layer1"
       inkscape:label="Layer 1">
      <path
         inkscape:connector-curvature="0"
         id="path2785"
         d="m -9.2647049,198.95673 -8.7550201,0.0377 v 20.42872 h 8.7550201 c 2.911868,3e-5 5.272578,-2.44227 5.272548,-5.36814 0,-0.006 -10e-4,-0.0125 -10e-4,-0.0186 h 10e-4 v -9.78183 c -5e-5,-2.92582 -2.36073,-5.2979 -5.272548,-5.29787 z m 41.0693279,0 c -2.91183,-2e-5 -5.27251,2.37207 -5.27255,5.29787 v 9.78183 h 0.001 c 0,0.006 -0.001,0.0125 -0.001,0.0186 -2e-5,2.92588 2.31934,5.3687 5.23121,5.36867 h 3.53415 c 2.91187,3e-5 5.23072,-2.4428 5.23069,-5.36867 0,-0.006 -10e-4,-0.0125 -10e-4,-0.0186 h 10e-4 v -4.80952 -0.0367 h -6.99802 v 3.41684 h 3.51554 v 1.49449 c 0,0.99312 -0.80118,1.79788 -1.78955,1.79782 h -3.45147 c -0.98837,6e-5 -1.78956,-0.8047 -1.78956,-1.79782 v -9.94462 h 0.003 c 0,-0.96083 0.83614,-1.70021 1.78646,-1.70067 h 3.45146 c 0.95032,0 1.78594,0.73984 1.78594,1.70067 h 0.004 v 0.99116 h 3.48247 v -0.89349 c -4e-5,-2.92581 -2.36021,-5.29789 -5.27203,-5.29787 z m -130.079399,0.0362 a 5.272332,5.2976661 0 0 0 -0.573091,0.0377 h -8.181933 v 12.23078 8.19795 h 3.48299 v -8.19795 h 5.272034 a 5.272332,5.2976661 0 0 0 5.272547,-5.29787 5.272332,5.2976661 0 0 0 -0.001,-0.0186 h 0.001 v -1.65416 a 5.272332,5.2976661 0 0 0 -5.272547,-5.29787 z m 44.48979,0 -8.75502,0.0377 v 3.46181 h 8.75502 c 0.950312,0 1.785937,0.73931 1.785937,1.70015 h 0.0036 v 1.81694 c -10e-6,0.99313 -0.801182,1.79841 -1.789557,1.79834 l -7.540625,0.0233 6.67298,11.59206 3.928959,0.0232 0.427363,-0.0465 -4.985742,-8.13904 h 1.497065 c 2.911822,3e-5 5.272511,-2.37154 5.272548,-5.29735 0,-0.006 -0.0011,-0.0125 -0.0011,-0.0186 h 0.0011 v -1.65468 c 0,-2.92576 -2.360782,-5.29738 -5.272548,-5.29735 z m -25.189675,0.008 -5.826519,10.203 v 10.21901 h 3.482992 v -3.36776 h 7.061585 v 3.36776 h 3.482991 v -10.18904 -5.3e-4 -0.03 h -0.01654 l -5.809464,-10.17302 z m 155.595674,0 -5.82652,10.203 v 10.21901 h 3.48299 v -3.36776 h 7.06158 v 3.36776 h 3.483 v -10.18904 -5.3e-4 -0.03 h -0.0165 l -5.80947,-10.17302 z m 33.056887,0.007 v 3.45509 h 3.48299 v -3.45511 z m -144.099725,0.016 -5.82652,10.20299 v 10.21902 h 3.482994 v -3.36775 h 7.061584 v 3.36775 h 3.48299 v -10.18905 -0.001 -0.0295 h -0.01704 l -5.808948,-10.17302 z m 38.6622381,0.003 v 3.49953 h 5.27255 v 13.44311 h -5.27255 v 3.45302 H 18.299503 v -3.45302 h -5.27203 v -13.44311 h 5.27203 v -3.49953 z m 54.8385099,0.002 -3.51554,6.13606 -3.51452,-6.13399 h -3.51451 v 20.392 h 3.51451 v -13.31444 l 1.81178,3.1626 3.40651,-0.002 1.81177,-3.16208 v 13.31443 h 3.51452 V 199.029 Z m -73.615657,3.42766 h 5.2720291 c 0.950312,8e-4 1.786454,0.73984 1.786454,1.70067 h 0.0036 v 9.94462 c -8e-6,0.99311 -0.801695,1.79788 -1.79007,1.79782 H -14.53675 Z m -89.010076,0.0362 h 5.272034 c 0.950312,7.9e-4 1.786454,0.73983 1.786454,1.70067 h 0.0031 v 1.81694 c -9e-6,0.99312 -0.80118,1.7979 -1.789554,1.79782 h -5.272034 z m 25.750886,1.47536 3.539321,6.19807 v 2.43603 h -7.061585 v -2.46549 z m 155.596187,0 3.5388,6.19807 v 2.43603 h -7.06158 v -2.46549 z m -111.043348,0.0232 3.539318,6.19808 v 2.43602 h -7.061584 v -2.46548 z m 165.197665,1.15135 c -2.91183,-2e-5 -5.27251,2.37154 -5.27255,5.29736 v 3.57704 h 0.001 c 0,0.006 -0.001,0.0125 -0.001,0.0186 -2e-5,2.92588 2.31934,5.36818 5.23121,5.36815 h 3.53415 c 2.91187,3e-5 5.23123,-2.44228 5.2312,-5.36815 0,-0.006 -0.001,-0.0125 -0.001,-0.0186 l -3.48196,0.0646 c -1e-5,0.99313 -0.80118,1.79841 -1.78956,1.79835 h -3.45147 c -0.98837,6e-5 -1.78955,-0.80522 -1.78955,-1.79835 v -3.7393 h 0.004 c 0,-0.96084 0.83563,-1.69969 1.78594,-1.70016 h 3.45147 c 0.9503,8e-4 1.78594,0.73932 1.78594,1.70016 h 0.004 l 3.48299,0.0977 c -4e-5,-2.92582 -2.36072,-5.29738 -5.27254,-5.29736 z m 17.01963,0 v 8.8744 h 5.3e-4 c 0,0.006 -5.3e-4,0.0125 -5.3e-4,0.0186 -3e-5,2.92588 2.31882,5.36818 5.23069,5.36815 h 3.53416 c 2.91187,3e-5 5.23123,-2.44228 5.23121,-5.36815 0,-0.006 0,-0.0125 0,-0.0186 v 0 -8.8744 h -3.483 v 8.93899 c 0,0.99313 -0.80119,1.79841 -1.78957,1.79835 h -3.45146 c -0.98837,6e-5 -1.78955,-0.80522 -1.78955,-1.79835 v -8.93899 z m -44.58436,0.82011 v 3.49953 h 5.27203 v 6.48849 h -5.27203 v 3.47214 l 14.05909,-0.0191 v -3.45302 h -5.27254 v -9.98802 z m -11.684037,10.00508 v 3.45508 h 3.48299 v -3.45509 z"
         style="display:inline;fill:#373737;fill-opacity:1;fill-rule:nonzero;stroke:none;stroke-width:0.35277784" />
      <path
         inkscape:connector-curvature="0"
         id="path2822"
         d="M 27.970233,21.254923 A 68.08847,68.415646 0 0 0 -40.118119,89.670386 68.08847,68.415646 0 0 0 27.970233,158.08636 68.08847,68.415646 0 0 0 96.058583,89.670386 68.08847,68.415646 0 0 0 27.970233,21.254923 Z m -42.215513,39.8601 H 4.5179131 l 4.69119,8.16384 23.4275099,-0.0047 4.69067,8.161774 -42.1912199,0.0072 z m 65.667823,0.0016 18.7632,5.3e-4 -9.38186,16.327683 h -9.38185 l -11.74916,20.390438 h -9.37927 z m -35.17511,20.431274 21.10259,36.711973 -9.38393,16.32664 -9.38082,-16.32768 4.69222,-8.16384 -11.72021,-20.385319 z"
         style="display:inline;opacity:1;fill:#373737;fill-opacity:1;stroke:#d1d1d1;stroke-width:1.00000012;stroke-linecap:butt;stroke-linejoin:miter;stroke-miterlimit:10;stroke-dasharray:none;stroke-dashoffset:2.1245997;stroke-opacity:0" />
    </g>
    <g
       style="display:inline"
       id="page1"
       sodipodi:insensitive="true" />
  </g>
</svg>
