<?xml version="1.0" encoding="UTF-8" standalone="no"?>
<!-- Created with Inkscape (http://www.inkscape.org/) -->

<svg
   xmlns:dc="http://purl.org/dc/elements/1.1/"
   xmlns:cc="http://creativecommons.org/ns#"
   xmlns:rdf="http://www.w3.org/1999/02/22-rdf-syntax-ns#"
   xmlns:svg="http://www.w3.org/2000/svg"
   xmlns="http://www.w3.org/2000/svg"
   xmlns:sodipodi="http://sodipodi.sourceforge.net/DTD/sodipodi-0.dtd"
   xmlns:inkscape="http://www.inkscape.org/namespaces/inkscape"
   width="225.21361mm"
   height="27.317696mm"
   viewBox="0 0 225.21361 27.317696"
   version="1.1"
   id="svg8"
   inkscape:version="0.92.1 r15371"
   sodipodi:docname="shellpunks_logo.svg">
  <defs
     id="defs2" />
  <sodipodi:namedview
     id="base"
     pagecolor="#ffffff"
     bordercolor="#666666"
     borderopacity="1.0"
     inkscape:pageopacity="0.0"
     inkscape:pageshadow="2"
     inkscape:zoom="0.49497475"
     inkscape:cx="38.058197"
     inkscape:cy="317.17849"
     inkscape:document-units="mm"
     inkscape:current-layer="layer1"
     showgrid="false"
     showguides="true"
     inkscape:guide-bbox="true"
     inkscape:snap-object-midpoints="true"
     inkscape:snap-text-baseline="true"
     inkscape:window-width="1920"
     inkscape:window-height="1080"
     inkscape:window-x="1920"
     inkscape:window-y="0"
     inkscape:window-maximized="1" />
  <metadata
     id="metadata5">
    <rdf:RDF>
      <cc:Work
         rdf:about="">
        <dc:format>image/svg+xml</dc:format>
        <dc:type
           rdf:resource="http://purl.org/dc/dcmitype/StillImage" />
        <dc:title></dc:title>
      </cc:Work>
    </rdf:RDF>
  </metadata>
  <g
     inkscape:label="Layer 1"
     inkscape:groupmode="layer"
     id="layer1"
     transform="translate(141.02224,-11.739584)">
    <g
       id="g10119">
      <g
         aria-label="SHELL"
         style="font-style:normal;font-variant:normal;font-weight:normal;font-stretch:normal;font-size:38.09999847px;line-height:1.25;font-family:'Bebas Neue';-inkscape-font-specification:'Bebas Neue';text-align:end;letter-spacing:0px;word-spacing:0px;text-anchor:end;fill:#000000;fill-opacity:1;stroke:none;stroke-width:0.26458332"
         id="g10071"
         transform="translate(8.6281185,-72.321331)">
        <path
           d="m -149.53606,90.785565 c 0,7.619999 8.1915,8.648699 8.1915,14.135095 0,1.905 -0.8382,2.5908 -2.1717,2.5908 -1.3335,0 -2.1717,-0.6858 -2.1717,-2.5908 v -1.905 h -3.9624 v 1.6383 c 0,4.2672 2.1336,6.7056 6.2484,6.7056 4.1148,0 6.2484,-2.4384 6.2484,-6.7056 0,-7.619996 -8.1915,-8.648696 -8.1915,-14.135095 0,-1.905 0.762,-2.6289 2.0955,-2.6289 1.3335,0 2.0955,0.7239 2.0955,2.6289 v 1.1049 h 3.9624 v -0.8382 c 0,-4.2672 -2.0955,-6.7056 -6.1722,-6.7056 -4.0767,0 -6.1722,2.4384 -6.1722,6.7056 z"
           style="font-style:normal;font-variant:normal;font-weight:bold;font-stretch:normal;font-family:'Bebas Neue';-inkscape-font-specification:'Bebas Neue Bold';letter-spacing:3.96875px;stroke-width:0.26458332"
           id="path10061"
           inkscape:connector-curvature="0" />
        <path
           d="m -126.62982,99.624764 h 4.7625 v 11.429996 h 4.2672 V 84.384765 h -4.2672 v 11.429999 h -4.7625 V 84.384765 h -4.191 v 26.669995 h 4.191 z"
           style="font-style:normal;font-variant:normal;font-weight:bold;font-stretch:normal;font-family:'Bebas Neue';-inkscape-font-specification:'Bebas Neue Bold';letter-spacing:3.96875px;stroke-width:0.26458332"
           id="path10063"
           inkscape:connector-curvature="0" />
        <path
           d="m -106.36439,88.194765 h 7.238996 v -3.81 h -11.429996 v 26.669995 h 11.429996 v -3.81 h -7.238996 v -7.810496 h 5.7531 v -3.81 h -5.7531 z"
           style="font-style:normal;font-variant:normal;font-weight:bold;font-stretch:normal;font-family:'Bebas Neue';-inkscape-font-specification:'Bebas Neue Bold';letter-spacing:3.96875px;stroke-width:0.26458332"
           id="path10065"
           inkscape:connector-curvature="0" />
        <path
           d="m -92.596802,111.05476 h 11.0871 v -3.81 h -6.8961 V 84.384765 h -4.191 z"
           style="font-style:normal;font-variant:normal;font-weight:bold;font-stretch:normal;font-family:'Bebas Neue';-inkscape-font-specification:'Bebas Neue Bold';letter-spacing:3.96875px;stroke-width:0.26458332"
           id="path10067"
           inkscape:connector-curvature="0" />
        <path
           d="m -75.680004,111.05476 h 11.087099 v -3.81 h -6.896099 V 84.384765 h -4.191 z"
           style="font-style:normal;font-variant:normal;font-weight:bold;font-stretch:normal;font-family:'Bebas Neue';-inkscape-font-specification:'Bebas Neue Bold';letter-spacing:3.96875px;stroke-width:0.26458332"
           id="path10069"
           inkscape:connector-curvature="0" />
      </g>
      <g
         aria-label="PUNKS"
         style="font-style:normal;font-variant:normal;font-weight:normal;font-stretch:normal;font-size:38.09999847px;line-height:1.25;font-family:'Bebas Neue';-inkscape-font-specification:'Bebas Neue';text-align:end;letter-spacing:3.96875px;word-spacing:0px;text-anchor:end;fill:#000000;fill-opacity:1;stroke:none;stroke-width:0.26458332"
         id="g10083"
         transform="translate(-6.5349965,-72.32133)">
        <path
           d="M 7.5596324,84.365714 H 1.3874326 v 26.669996 h 4.1909999 v -10.0203 h 1.9811999 c 4.1909996,0 6.2483996,-2.324096 6.2483996,-6.591296 v -3.4671 c 0,-4.2672 -2.0574,-6.5913 -6.2483996,-6.5913 z m 0,3.81 c 1.3334999,0 2.0573999,0.6096 2.0573999,2.5146 v 4.0005 c 0,1.905 -0.7239,2.5146 -2.0573999,2.5146 H 5.5784325 v -9.0297 z"
           style="font-style:normal;font-variant:normal;font-weight:bold;font-stretch:normal;font-family:'Bebas Neue';-inkscape-font-specification:'Bebas Neue Bold';text-align:start;letter-spacing:3.96875px;text-anchor:start;stroke-width:0.26458332"
           id="path10073"
           inkscape:connector-curvature="0" />
        <path
           d="m 19.750838,84.365714 v 20.307296 c 0,4.2672 2.1336,6.7056 6.2484,6.7056 4.1148,0 6.2484,-2.4384 6.2484,-6.7056 V 84.365714 h -3.9624 v 20.573996 c 0,1.905 -0.8382,2.5908 -2.1717,2.5908 -1.3335,0 -2.1717,-0.6858 -2.1717,-2.5908 V 84.365714 Z"
           style="font-style:normal;font-variant:normal;font-weight:bold;font-stretch:normal;font-family:'Bebas Neue';-inkscape-font-specification:'Bebas Neue Bold';text-align:start;letter-spacing:3.96875px;text-anchor:start;stroke-width:0.26458332"
           id="path10075"
           inkscape:connector-curvature="0" />
        <path
           d="m 48.044057,111.03571 h 4.3053 V 84.365714 h -3.7338 v 15.963896 l -4.3053,-15.963896 h -5.257799 v 26.669996 h 3.771899 V 91.719014 Z"
           style="font-style:normal;font-variant:normal;font-weight:bold;font-stretch:normal;font-family:'Bebas Neue';-inkscape-font-specification:'Bebas Neue Bold';text-align:start;letter-spacing:3.96875px;text-anchor:start;stroke-width:0.26458332"
           id="path10077"
           inkscape:connector-curvature="0" />
        <path
           d="m 68.919084,111.03571 h 4.3053 l -5.8293,-14.782796 5.8293,-11.8872 h -4.191 l -5.4864,11.6205 v -11.6205 h -4.191 v 26.669996 h 4.191 v -8.1915 l 1.2954,-2.4384 z"
           style="font-style:normal;font-variant:normal;font-weight:bold;font-stretch:normal;font-family:'Bebas Neue';-inkscape-font-specification:'Bebas Neue Bold';text-align:start;letter-spacing:3.96875px;text-anchor:start;stroke-width:0.26458332"
           id="path10079"
           inkscape:connector-curvature="0" />
        <path
           d="m 78.34387,90.766514 c 0,7.62 8.1915,8.6487 8.1915,14.135096 0,1.905 -0.8382,2.5908 -2.1717,2.5908 -1.3335,0 -2.1717,-0.6858 -2.1717,-2.5908 v -1.905 h -3.9624 v 1.6383 c 0,4.2672 2.1336,6.7056 6.2484,6.7056 4.1148,0 6.2484,-2.4384 6.2484,-6.7056 0,-7.619996 -8.1915,-8.648696 -8.1915,-14.135096 0,-1.905 0.762,-2.6289 2.0955,-2.6289 1.3335,0 2.0955,0.7239 2.0955,2.6289 v 1.1049 h 3.9624 v -0.8382 c 0,-4.2672 -2.0955,-6.7056 -6.1722,-6.7056 -4.0767,0 -6.1722,2.4384 -6.1722,6.7056 z"
           style="font-style:normal;font-variant:normal;font-weight:bold;font-stretch:normal;font-family:'Bebas Neue';-inkscape-font-specification:'Bebas Neue Bold';text-align:start;letter-spacing:3.96875px;text-anchor:start;stroke-width:0.26458332"
           id="path10081"
           inkscape:connector-curvature="0" />
      </g>
      <g
         style="stroke-width:6.14483881"
         transform="matrix(0.16273821,0,0,0.16273821,-51.339104,30.5799)"
         id="g10091">
        <path
           inkscape:connector-curvature="0"
           id="path10085"
           style="display:inline;fill:#373737;fill-opacity:1;fill-rule:nonzero;stroke:none;stroke-width:2.16776228"
           d="m 138.96089,-70.941122 -81.200975,0.01305 -18.055519,-31.274808 h 36.112095 l 9.02829,15.63758 45.088879,-0.0092 z" />
        <path
           inkscape:connector-curvature="0"
           id="path10087"
           style="display:inline;fill:#373737;fill-opacity:1;fill-rule:nonzero;stroke:none;stroke-width:2.16776228"
           d="m 166.08827,-102.19949 -40.66434,70.330836 h 18.05129 l 22.61199,-39.056382 18.05693,2.65e-4 18.05623,-31.273049 z" />
        <path
           inkscape:connector-curvature="0"
           id="path10089"
           style="display:inline;fill:#373737;fill-opacity:1;fill-rule:nonzero;stroke:none;stroke-width:2.16776228"
           d="M 89.364605,-47.432118 111.92051,-8.3870257 102.89046,7.2498443 120.94457,38.524304 139.00432,7.2519643 98.390776,-63.065815 Z" />
      </g>
    </g>
  </g>
</svg>
